<?xml version="1.0" encoding="utf-8"?>
<!-- Generator: Adobe Illustrator 27.7.0, SVG Export Plug-In . SVG Version: 6.00 Build 0)  -->
<svg version="1.1" id="レイヤー_1" xmlns="http://www.w3.org/2000/svg" xmlns:xlink="http://www.w3.org/1999/xlink" x="0px"
	 y="0px" viewBox="0 0 400 400" style="enable-background:new 0 0 400 400;" xml:space="preserve">
<style type="text/css">
	.st0{fill:none;stroke:#FFD113;stroke-width:3.8413;}
	.st1{fill:#FFD113;}
</style>
<g>
	<rect x="61.2" y="61.2" transform="matrix(0.7071 -0.7071 0.7071 0.7071 -82.8415 199.9944)" width="277.7" height="277.7"/>
	<polygon class="st0" points="200,389.1 10.9,200 200,10.9 389.1,200 	"/>
	<g>
		<path class="st1" d="M221.7,346.9c-11.9,11.9-31.5,11.9-43.5,0L53.1,221.7c-12-11.9-12-31.5,0-43.5L178.3,53.1
			c12-12,31.5-12,43.5,0l125.1,125.1c12,12,12,31.5,0,43.5L221.7,346.9z"/>
	</g>
	<path d="M153.2,270.1H96.8l13.3,21h172.2l22-21h-31.9"/>
</g>
</svg>
