<?xml version="1.0" encoding="utf-8"?>
<!-- Generator: Adobe Illustrator 27.7.0, SVG Export Plug-In . SVG Version: 6.00 Build 0)  -->
<svg version="1.1" id="レイヤー_1" xmlns="http://www.w3.org/2000/svg" xmlns:xlink="http://www.w3.org/1999/xlink" x="0px"
	 y="0px" viewBox="0 0 400 400" style="enable-background:new 0 0 400 400;" xml:space="preserve">
<style type="text/css">
	.st0{fill:#FF0000;}
	.st1{fill:none;stroke:#FFFFFF;stroke-width:2.8523;}
	.st2{fill:#FFFFFF;}
	.st3{fill:#0334A6;}
</style>
<g>
	<path class="st0" d="M396.4,369.6c0,15.7-12.8,28.5-28.5,28.5H32.1c-15.7,0-28.5-12.8-28.5-28.5V30.4c0-15.7,12.8-28.5,28.5-28.5
		h335.8c15.7,0,28.5,12.8,28.5,28.5V369.6z"/>
	<path class="st1" d="M367.9,392.4H32.1c-12.6,0-22.8-10.2-22.8-22.8V30.4c0-12.6,10.2-22.8,22.8-22.8h335.8
		c12.6,0,22.8,10.2,22.8,22.8v339.1C390.7,382.1,380.5,392.4,367.9,392.4L367.9,392.4z"/>
	<path class="st2" d="M326.3,72.6c-2.8-2.8-6.8-4.6-11.1-4.6H200H89.3l61.5,61.5l-26.2,14.2L69.1,88.2V200v116.3
		c0,4.3,1.8,8.2,4.6,11.1c2.8,2.8,6.7,4.6,11.1,4.6H200h113l-81-81l25-15.3l73.9,73.9V200V83.7C330.9,79.4,329.1,75.4,326.3,72.6z"
		/>
	<path class="st3" d="M71.3,185.6c-1.5-2.8-0.5-6.2,2.3-7.7l0,0l199.3-108c2.8-1.5,6.2-0.5,7.7,2.3l0,0c1.5,2.8,0.5,6.2-2.3,7.7l0,0
		L79,187.9c-0.9,0.5-1.8,0.7-2.7,0.7l0,0C74.3,188.6,72.3,187.5,71.3,185.6L71.3,185.6z"/>
	<path class="st3" d="M181.2,268.6c-1.6-2.7-0.8-6.2,1.9-7.8l0,0l129.4-79.2c2.7-1.6,6.2-0.8,7.8,1.9l0,0c1.6,2.7,0.8,6.2-1.9,7.8
		l0,0L189,270.4c-0.9,0.6-1.9,0.8-3,0.8l0,0C184.2,271.3,182.3,270.4,181.2,268.6L181.2,268.6z"/>
	<path class="st2" d="M229,174.1c-0.3-1-0.4-2-0.5-3l0,0c-0.1-0.2-0.4-0.6-0.6-1.1l0,0c-0.2-0.3-0.3-0.5-0.5-0.8l0,0
		C228,171.2,228.6,172.9,229,174.1L229,174.1z"/>
	<g>
		<path class="st3" d="M258.2,320.4h-16.8v-16.8h9.6c1.6,0,2.9-1.3,2.9-2.9s-1.3-2.9-2.9-2.9h-9.6v-13c0-1.6-1.3-2.9-2.8-2.9
			c-1.6,0-2.9,1.3-2.9,2.9v15.8l0,0l0,0v19.6h-4.1v-26.8c0-1.6-1.3-2.9-2.9-2.9c-1.6,0-2.8,1.3-2.8,2.9v26.8h-6.3
			c-1.6,0-2.9,1.3-2.9,2.9s1.3,2.9,2.9,2.9h38.6c1.6,0,2.8-1.3,2.8-2.9C261,321.7,259.7,320.4,258.2,320.4z"/>
		<path class="st3" d="M114.4,323.1c-1.6-0.7-2.6-1.8-3.2-3c-0.5-0.9-0.6-1.5-0.7-1.7h0.9c0.8,0,1.5-0.3,2-0.8s0.8-1.3,0.8-2v-15.2
			c0-0.8-0.3-1.5-0.8-2s-1.3-0.8-2-0.8h-5.9v-1.4h7.3c1.6,0,2.9-1.3,2.9-2.9s-1.3-2.9-2.9-2.9h-5V289h2.7c1.6,0,2.8-1.3,2.8-2.9
			s-1.3-2.9-2.8-2.9h-2.7v-0.7c0-1.6-1.3-2.9-2.8-2.9c-1.6,0-2.8,1.3-2.8,2.9v0.7h-1.1v-0.7c0-1.6-1.3-2.9-2.8-2.9
			c-1.6,0-2.8,1.3-2.8,2.9v0.7h-0.9c-1.6,0-2.8,1.3-2.8,2.9s1.3,2.9,2.8,2.9h0.9v1.4H89c-0.5-0.9-1.4-1.6-2.5-1.6h-2.3v-4.1
			c0-1.6-1.3-2.9-2.8-2.9c-1.6,0-2.9,1.3-2.9,2.9v4.1h-2.9c-1.6,0-2.8,1.3-2.8,2.9s1.3,2.9,2.8,2.9h2.6c-0.2,1.6-0.5,3.9-1,6.3
			c-0.9,4.8-2.5,10.4-4.2,12.7c-0.9,1.3-0.6,3.1,0.7,4c0.5,0.4,1.1,0.5,1.7,0.5c0.9,0,1.8-0.4,2.3-1.2c0.3-0.5,0.6-1,0.9-1.5v7.9
			c0,1.6,1.3,2.9,2.9,2.9s2.8-1.3,2.8-2.9v-13c0.6,0.3,1.3,0.4,2,0.2c1.5-0.4,2.4-2,2-3.5l-3.1-11.6c0.5,0.5,1.2,0.8,1.9,0.8h12.8
			v1.4h-6.4c-0.7,0-1.5,0.3-2,0.8s-0.8,1.3-0.8,2v15.2c0,0.8,0.3,1.5,0.8,2s1.3,0.8,2,0.8h0.7c-0.4,0.5-0.9,1.3-1.5,2.1
			c-1.2,1.6-3,3-3.6,3.1c-1.5,0.4-2.4,2-2,3.5c0.3,1.3,1.5,2.1,2.8,2.1c0.2,0,0.5,0,0.7-0.1c5.7-1.9,8.8-8.6,9.1-8.7
			c0.4-0.6,0.4-1.3,0.3-2h2.7c0,0,0,0,0.1,0c0,0,0,0,0.1,0h2.2c0,0.3-0.1,0.6,0,0.9l0,0c0.1,0.3,1.1,6.4,7.4,9.1
			c0.3,0.1,0.7,0.2,1.1,0.2c1.1,0,2.2-0.7,2.6-1.8C116.6,325.3,115.9,323.6,114.4,323.1z M101.1,289h1.1v1.4h-1.1V289z M96.2,312.7
			v-1.4h3.6v1.4H96.2z M105.5,311.3h3v1.4h-3V311.3z M108.5,303.2v2.3h-3v-2.3H108.5z M99.8,303.2v2.3h-3.6v-2.3H99.8z"/>
		<path class="st3" d="M162,285.8h-8.4c3.6-2.8,6.6-5.5,6.7-5.5c1.2-1,1.3-2.8,0.3-4s-2.8-1.3-4-0.3c0,0-2.6,2.3-5.7,4.7
			c-3,2.4-6.9,5-8.2,5.2c-0.1,0-0.1,0.1-0.1,0.1c-0.1,0-0.2,0-0.2,0.1c-0.3-0.5-0.8-1-1.3-1.3c1.1-1.1,1.1-2.9,0-4s-2.9-1.2-4-0.1
			l-0.1,0.1c-0.2-1.4-1.3-2.5-2.8-2.5c-1.3,0-2.4,0.9-2.7,2.2l-0.6-0.6c-1.1-1.1-2.9-1.1-4,0s-1.2,2.9-0.1,4l0,0l0.7,0.7h-1.3
			c-0.2,0-0.4,0.1-0.5,0.1V280c0-1.6-1.3-2.8-2.9-2.8s-2.8,1.3-2.8,2.8l0,0v42.6c0,0.8,0.3,1.5,0.8,2s1.3,0.8,2,0.8h14.5
			c-0.3,0.4-0.5,0.7-0.5,0.7c-0.9,1.3-0.6,3.1,0.7,4c0.5,0.4,1.1,0.5,1.7,0.5c0.9,0,1.8-0.4,2.3-1.2c0-0.3,4.5-5.9,4.8-11.3
			c0-2.8,0-19.8,0-26.6h5.9v33.9c0,1.6,1.3,2.8,2.8,2.8c1.6,0,2.9-1.3,2.9-2.8v-33.9h4.1c1.6,0,2.8-1.3,2.8-2.9
			C164.9,287.1,163.6,285.8,162,285.8z M139.9,290.2c0.3,0,0.5-0.1,0.7-0.1c0,2,0,6,0,10.4l-2.7-10.3H139.9z M125.6,290.1
			c0.2,0,0.4,0.1,0.5,0.1h4.9c-0.2,2-0.4,4.6-0.8,7.5c-0.6,5.4-2.4,11.6-3.3,12.1c-1.1,1.1-1.1,2.9,0,4.1c0.6,0.6,1.3,0.8,2,0.8
			s1.5-0.3,2-0.8l0,0c0.1-0.1,0.2-0.3,0.3-0.4v2c0,1.6,1.3,2.9,2.9,2.9c1.6,0,2.9-1.3,2.9-2.9v-9.3c0.6,0.4,1.4,0.5,2.1,0.3
			c0.6-0.2,1-0.5,1.4-0.9c0,5.8,0,11.1,0,12.6c0,0.3-0.1,0.9-0.4,1.6h-14.6v-29.7H125.6z"/>
		<path class="st3" d="M214.1,288.6c0-1.6-1.3-2.9-2.8-2.9H208v-4.6c0-1.6-1.3-2.9-2.8-2.9c-1.6,0-2.9,1.3-2.9,2.9v4.6H198
			c-1.4,0-2.5,1-2.7,2.3c-0.3-1.3-1.4-2.3-2.7-2.3h-3.2v-4.6c0-1.6-1.3-2.9-2.9-2.9c-1.6,0-2.9,1.3-2.9,2.9v4.6h-4.3
			c-1.6,0-2.8,1.3-2.8,2.9s1.3,2.9,2.8,2.9h1.2c-0.9,1-1.9,2.1-2.9,3.1c-1.1,1.1-1.1,2.9,0,4c0.6,0.6,1.3,0.8,2,0.8s1.5-0.3,2-0.8
			l0,0c0.7-0.7,1.4-1.4,2-2.2v2.6c0,1.6,1.3,2.9,2.9,2.9c1.6,0,2.9-1.3,2.9-2.9v-2.2l1,1.2c1,1.2,2.8,1.5,4,0.5s1.4-2.8,0.5-4
			l-2.4-3.1h0.2c1.4,0,2.5-1,2.7-2.3c0.3,1.3,1.4,2.3,2.7,2.3h1.2c-0.9,1-1.9,2.1-2.9,3.1c-1.1,1.1-1.1,2.9,0,4
			c0.6,0.6,1.3,0.8,2,0.8s1.5-0.3,2-0.8l0,0c0.7-0.7,1.4-1.4,2-2.2v2.6c0,1.6,1.3,2.9,2.9,2.9c1.6,0,2.8-1.3,2.8-2.9v-2.2l1,1.2
			c1,1.2,2.8,1.4,4,0.5c1.2-1,1.5-2.8,0.5-4l-2.4-3.1h0.2C212.8,291.4,214.1,290.1,214.1,288.6z"/>
		<path class="st3" d="M203.2,309.1c1.6,0,2.9-1.3,2.9-2.9s-1.3-2.9-2.9-2.9h-14.4c-1.6,0-2.9,1.3-2.9,2.9s1.3,2.9,2.9,2.9H203.2z"
			/>
		<path class="st3" d="M213.4,315.2c0-1.6-1.3-2.9-2.9-2.9h-30.7c-1.6,0-2.9,1.3-2.9,2.9s1.3,2.9,2.9,2.9h5.2
			c-0.2,0.2-0.3,0.4-0.5,0.5c-1.2,1.3-2.5,2.6-3.5,3.4c-0.5,0.4-1,0.8-1.3,0.9c-0.1,0-0.2,0.1-0.2,0.1c-1.4,0.2-2.5,1.4-2.5,2.8
			c0,1.6,1.3,2.9,2.8,2.9c4.1-0.6,5.9-3.5,8.8-6.3c1.6-1.7,2.9-3.3,3.8-4.3v9.3c0,1.6,1.3,2.9,2.9,2.9c1.6,0,2.9-1.3,2.9-2.9V318
			h1.3c0.6,1.1,1.5,2.7,2.5,4.3c2.2,2.9,3.6,6.3,8.1,6.9c1.6,0,2.8-1.3,2.8-2.8s-1.1-2.7-2.6-2.8c-0.5-0.3-2.6-2.5-3.9-4.8
			c-0.2-0.2-0.3-0.5-0.4-0.7h4.4C212.1,318,213.4,316.8,213.4,315.2z"/>
	</g>
</g>
</svg>
