<?xml version="1.0" encoding="utf-8"?>
<!-- Generator: Adobe Illustrator 27.7.0, SVG Export Plug-In . SVG Version: 6.00 Build 0)  -->
<svg version="1.1" xmlns="http://www.w3.org/2000/svg" xmlns:xlink="http://www.w3.org/1999/xlink" x="0px"
	 y="0px" viewBox="0 0 400 400" style="enable-background:new 0 0 400 400;" xml:space="preserve">
<style type="text/css">
	.st0{fill:#0334A6;}
	.st1{fill:none;stroke:#FFFFFF;stroke-width:2.418;}
	.st2{fill:#FFFFFF;}
</style>
<g>
	<path class="st0" d="M46.8,397.5c-18.7,0-26.2-11.2-26.2-23.1c0-8.1,0-69.3,0-69.3s0.4-24.1,5.3-32c5-8.1,140-236.4,150.8-254
		C187.4,1.3,200,2.5,200,2.5s12.6-1.2,23.3,16.4c10.7,17.6,145.7,246,150.8,254c5,7.9,5.3,32,5.3,32s0,61.3,0,69.3
		c0,11.9-7.5,23.1-26.2,23.1C334.6,397.5,65.4,397.5,46.8,397.5z"/>
	<path class="st1" d="M353.2,385.4H46.8c-9.5,0-14.1-3.6-14.1-11.1V305c0.2-10.4,1.9-22.7,3.5-25.6c2.5-4,33.7-56.7,69.8-117.6
		c37.1-62.7,75.5-127.5,81-136.5c5.6-9.2,10.9-10.5,12.2-10.6l1.6,0.3l0.2-0.2c1.6,0.3,6.7,1.9,11.9,10.6c5.5,9,43.9,73.8,81,136.5
		c36.1,61,67.3,113.6,69.8,117.7c1.6,2.9,3.3,15.2,3.5,25.8v69.1C367.3,381.8,362.7,385.4,353.2,385.4L353.2,385.4z"/>
	<g>
		<path class="st2" d="M51.5,359.9c-2.7,0-4.8-1.8-4.8-4c0-2.2,1.2-5.8,2.7-8.1l5-7.7c1.5-2.2,4.8-4,7.5-4h276.4c2.7,0,6,1.8,7.5,4
			l5,7.7c1.5,2.2,2.7,5.9,2.7,8.1c0,2.2-2.2,4-4.8,4H51.5z"/>
	</g>
	<g>
		<g>
			<path class="st2" d="M274,261.2h35.4c2.7,0,6.2,1.7,7.9,3.8l2.9,3.7c1.7,2.1,3,6,3,8.6v0.9c0,2.7-2.2,4.8-4.8,4.8h-35"/>
		</g>
		<g>
			<path class="st2" d="M274,261.2H90.6c-2.7,0-6.2,1.7-7.9,3.8l-2.9,3.7c-1.7,2.1-3,6-3,8.6v0.9c0,2.7,2.2,4.8,4.8,4.8h201.8"/>
		</g>
	</g>
</g>
</svg>
