<?xml version="1.0" encoding="utf-8"?>
<!-- Generator: Adobe Illustrator 27.7.0, SVG Export Plug-In . SVG Version: 6.00 Build 0)  -->
<svg version="1.1" id="レイヤー_1" xmlns="http://www.w3.org/2000/svg" xmlns:xlink="http://www.w3.org/1999/xlink" x="0px"
	 y="0px" viewBox="0 0 400 400" style="enable-background:new 0 0 400 400;" xml:space="preserve">
<style type="text/css">
	.st0{fill:#FF0000;}
	.st1{fill:none;stroke:#FFFFFF;stroke-width:2.8498;}
	.st2{fill:#FFFFFF;}
	.st3{fill:none;stroke:#0334A6;stroke-width:5.6996;stroke-linecap:round;stroke-linejoin:round;}
</style>
<g>
	<path class="st0" d="M396.3,369.4c0,15.7-12.8,28.5-28.5,28.5H32.2c-15.7,0-28.5-12.8-28.5-28.5V30.6c0-15.7,12.8-28.5,28.5-28.5
		h335.5c15.7,0,28.5,12.8,28.5,28.5V369.4z"/>
	<path class="st1" d="M367.8,392.2H32.2c-12.6,0-22.8-10.2-22.8-22.8V30.6C9.4,18,19.7,7.8,32.2,7.8h335.5
		c12.6,0,22.8,10.2,22.8,22.8v338.8C390.6,382,380.3,392.2,367.8,392.2L367.8,392.2z"/>
	<path class="st2" d="M330.7,200V83.8c0-4.3-1.8-8.2-4.6-11.1c-2.8-2.8-6.7-4.6-11.1-4.6H200H89.4l241.3,241.3V200z"/>
	<path class="st2" d="M69.3,200v116.2c0,4.3,1.8,8.2,4.6,11.1c2.8,2.8,6.7,4.6,11.1,4.6H200h112.9L69.3,88.3V200z"/>
	<polyline class="st3" points="119.6,279.1 129,279.1 124,285 	"/>
	<line class="st3" x1="121.9" y1="282.2" x2="125.7" y2="287.5"/>
	<path class="st3" d="M114.6,317.5c0-1,0-27.2,0-27.2h21.5c0,0,0,28.7,0,30.5c0,1.8-5.6-0.3-5.6-0.3"/>
	<line class="st3" x1="114.6" y1="308.9" x2="136.1" y2="308.9"/>
	<line class="st3" x1="114.6" y1="300.1" x2="136.1" y2="300.1"/>
	<line class="st3" x1="125.4" y1="290.3" x2="125.4" y2="315.7"/>
	<line class="st3" x1="97.9" y1="280.3" x2="103" y2="285.8"/>
	<path class="st3" d="M99.2,298.1h9.2l-3.9,4.7c0,0,7.2,2.9,5.3,6.6c-1.9,3.7-10.6,14-10.6,14s3.7-5.4,6.6-4.4
		c2.9,1,4.8,6.5,13.1,6.5s19.3,0,19.3,0"/>
	<path class="st3" d="M165.1,280.8c0,0-7.4,10.6-10,13.2"/>
	<path class="st3" d="M168.3,289.9c0,0-7.9,13.5-11.8,17.4"/>
	<line class="st3" x1="162.7" y1="299" x2="162.7" y2="323.2"/>
	<line class="st3" x1="173.6" y1="296.1" x2="196" y2="296.1"/>
	<line class="st3" x1="191.9" y1="277.8" x2="176.9" y2="277.8"/>
	<path class="st3" d="M187.2,296.1c0,0,0,16.8,0,21.2c0,4.4-8.5,7.9-8.5,7.9"/>
	<line class="st3" x1="216.9" y1="323.2" x2="255.4" y2="323.2"/>
	<line class="st3" x1="237.5" y1="323.2" x2="237.5" y2="279"/>
	<line class="st3" x1="225.7" y1="323.2" x2="225.7" y2="291.1"/>
	<line class="st3" x1="237.5" y1="298.7" x2="252.8" y2="298.7"/>
</g>
</svg>
